<svg xmlns="http://www.w3.org/2000/svg" width="181.105" height="123.828" viewBox="0 0 181.105 123.828">
  <g id="Group_20" data-name="Group 20" transform="translate(-193.32 -152.385)">
    <path id="Path_57" data-name="Path 57" d="M284.87,160.3c23.705.509,45.484,10.742,63.112,30.013a98.42,98.42,0,0,1,14.729,21.252,2.769,2.769,0,0,1,.161,2.2c-11.417,21.405-27.607,37.9-50.765,46.03-34.148,11.987-64.536,4.533-90.922-19.841a93.735,93.735,0,0,1-19.247-25.9,2.764,2.764,0,0,1-.155-2.2c11.484-21.53,27.941-37.606,51.083-46.264C262.364,162.034,272.215,160.364,284.87,160.3Zm30.852,52.536A33.394,33.394,0,1,0,282.343,246.2,33.418,33.418,0,0,0,315.721,212.835Z" transform="translate(1.549 1.478)" fill="#a6d2ca"/>
    <path id="Path_58" data-name="Path 58" d="M202.8,161.728v9.487h-9.464v-18.8h18.845v9.315Z" transform="translate(0.002 0.005)" fill="#474645"/>
    <path id="Path_59" data-name="Path 59" d="M339.481,161.795h-9.432v-9.41h18.843v18.821h-9.411Z" transform="translate(25.533 0)" fill="#474645"/>
    <path id="Path_60" data-name="Path 60" d="M193.32,259.659V240.808H202.7v9.424h9.518v9.427Z" transform="translate(0 16.512)" fill="#474645"/>
    <path id="Path_61" data-name="Path 61" d="M348.873,259.694H330.048v-9.418H339.4v-9.43h9.474Z" transform="translate(25.533 16.52)" fill="#474645"/>
    <path id="Path_62" data-name="Path 62" d="M308.276,209.827a33.394,33.394,0,1,1-33.323-33.42A33.431,33.431,0,0,1,308.276,209.827Zm-31.387-18.851c-7.62-1.3-15.933,3.406-19.349,10.844a19.095,19.095,0,0,0,28.494,23.48c5.375-3.777,9.134-11.841,7.477-17.436-6.024,2.913-11.136,2.395-15.093-1.533C274.414,202.359,273.895,197.315,276.889,190.975Z" transform="translate(8.995 4.486)" fill="#fff"/>
    <path id="Path_63" data-name="Path 63" d="M274.636,188.717c-2.994,6.34-2.474,11.383,1.529,15.355,3.957,3.928,9.069,4.447,15.093,1.533,1.658,5.594-2.1,13.658-7.477,17.436a19.095,19.095,0,0,1-28.494-23.48C258.7,192.123,267.016,187.413,274.636,188.717Z" transform="translate(11.247 6.744)" fill="#474645"/>
  </g>
</svg>
