<svg id="Group_23" data-name="Group 23" xmlns="http://www.w3.org/2000/svg" width="65.566" height="40.666" viewBox="0 0 65.566 40.666">
  <g id="Group_7" data-name="Group 7" transform="translate(0 0)">
    <path id="Path_37" data-name="Path 37" d="M809.774,244.472a.982.982,0,0,1-1.016.938h-9.185a.982.982,0,0,1-1.016-.938H771.382v2h0a2.09,2.09,0,0,0,1.982,1.706h61.6a2.09,2.09,0,0,0,1.982-1.706h0v-2Z" transform="translate(-771.382 -207.517)" fill="#5d5c5c" fill-rule="evenodd"/>
    <path id="Path_38" data-name="Path 38" d="M794.852,151.73h1.274v-.608h3.892v.608h38.917v-.608h3.893v.608h1.547a1.817,1.817,0,0,0,1.81-1.811v-32.5a1.814,1.814,0,0,0-1.81-1.807H794.852a1.814,1.814,0,0,0-1.81,1.807v32.5A1.816,1.816,0,0,0,794.852,151.73ZM819.613,116.3a.7.7,0,1,1-.7.7A.7.7,0,0,1,819.613,116.3Zm-23.51,2.458h47.018v29.262H796.1Z" transform="translate(-786.83 -115.617)" fill="#5d5c5c" fill-rule="evenodd"/>
  </g>
  <g id="Group_10" data-name="Group 10" transform="translate(19.569 10.419)">
    <g id="Group_8" data-name="Group 8" transform="translate(0 0)">
      <path id="Path_39" data-name="Path 39" d="M853.245,151.946a14.222,14.222,0,0,1,10.333,4.914,16.117,16.117,0,0,1,2.411,3.48.453.453,0,0,1,.027.359,15.006,15.006,0,0,1-8.312,7.536c-5.591,1.963-10.566.742-14.887-3.249a15.348,15.348,0,0,1-3.151-4.241.453.453,0,0,1-.026-.359A15.459,15.459,0,0,1,848,152.812,14.586,14.586,0,0,1,853.245,151.946Zm5.051,8.6a5.468,5.468,0,1,0-5.465,5.464A5.472,5.472,0,0,0,858.3,160.548Z" transform="translate(-839.614 -151.946)" fill="#579abd"/>
      <path id="Path_40" data-name="Path 40" d="M877.561,168.331a5.468,5.468,0,1,1-5.456-5.472A5.474,5.474,0,0,1,877.561,168.331Zm-5.139-3.086a3.07,3.07,0,0,0-3.168,1.776,3.126,3.126,0,0,0,4.665,3.844,2.952,2.952,0,0,0,1.224-2.854,1.979,1.979,0,0,1-2.721-2.765Z" transform="translate(-858.879 -159.729)" fill="#fff"/>
    </g>
    <g id="Group_9" data-name="Group 9" transform="translate(10.091 5.48)">
      <path id="Path_41" data-name="Path 41" d="M878.251,171.088a1.979,1.979,0,0,0,2.721,2.765,2.952,2.952,0,0,1-1.224,2.854,3.126,3.126,0,0,1-4.665-3.844A3.07,3.07,0,0,1,878.251,171.088Z" transform="translate(-874.798 -171.053)" fill="#474645"/>
    </g>
  </g>
</svg>
