<svg xmlns="http://www.w3.org/2000/svg" width="62.363" height="42.64" viewBox="0 0 62.363 42.64">
  <g id="Group_20" data-name="Group 20" transform="translate(0)">
    <path id="Path_57" data-name="Path 57" d="M230.284,160.3c8.163.175,15.662,3.7,21.732,10.335a33.892,33.892,0,0,1,5.072,7.318.953.953,0,0,1,.056.756c-3.931,7.371-9.506,13.051-17.481,15.85-11.759,4.128-22.223,1.561-31.309-6.832a32.278,32.278,0,0,1-6.628-8.919.952.952,0,0,1-.054-.756c3.955-7.414,9.621-12.949,17.59-15.931A30.684,30.684,0,0,1,230.284,160.3Zm10.624,18.091a11.5,11.5,0,1,0-11.494,11.49A11.507,11.507,0,0,0,240.908,178.39Z" transform="translate(-198.226 -157.065)" fill="#a6d2ca"/>
    <path id="Path_58" data-name="Path 58" d="M196.592,155.62v3.267h-3.259v-6.474h6.489v3.208Z" transform="translate(-193.328 -152.402)" fill="#474645"/>
    <path id="Path_59" data-name="Path 59" d="M333.3,155.625h-3.248v-3.24h6.489v6.481H333.3Z" transform="translate(-274.175 -152.385)" fill="#474645"/>
    <path id="Path_60" data-name="Path 60" d="M193.32,247.3v-6.491h3.23v3.245h3.277V247.3Z" transform="translate(-193.32 -204.674)" fill="#474645"/>
    <path id="Path_61" data-name="Path 61" d="M336.53,247.336h-6.482v-3.243h3.22v-3.247h3.262Z" transform="translate(-274.174 -204.696)" fill="#474645"/>
    <path id="Path_62" data-name="Path 62" d="M264.485,187.915a11.5,11.5,0,1,1-11.475-11.508A11.512,11.512,0,0,1,264.485,187.915Zm-10.808-6.491a6.455,6.455,0,0,0-6.663,3.734,6.575,6.575,0,0,0,9.812,8.085c1.851-1.3,3.145-4.078,2.575-6-2.074,1-3.835.825-5.2-.528C252.825,185.343,252.646,183.607,253.677,181.424Z" transform="translate(-221.804 -166.59)" fill="#fff"/>
    <path id="Path_63" data-name="Path 63" d="M260.81,188.575c-1.031,2.183-.852,3.92.526,5.288,1.362,1.353,3.123,1.531,5.2.528.571,1.926-.724,4.7-2.575,6a6.575,6.575,0,0,1-9.812-8.085A6.455,6.455,0,0,1,260.81,188.575Z" transform="translate(-228.936 -173.742)" fill="#474645"/>
  </g>
</svg>
