<svg xmlns="http://www.w3.org/2000/svg" width="67.483" height="52.331" viewBox="0 0 67.483 52.331">
  <g id="Group_21" data-name="Group 21" transform="translate(0)">
    <path id="Path_64" data-name="Path 64" d="M220.514,405.311c17.421-1.6,31.173-20.03,31.173-20.03s-15.028-20.14-33.567-20.14-33.567,20.14-33.567,20.14,13.752,18.429,31.173,20.03Z" transform="translate(-184.552 -352.98)" fill="#ece5e4"/>
    <ellipse id="Ellipse_10" data-name="Ellipse 10" cx="15.251" cy="15.251" rx="15.251" ry="15.251" transform="translate(18.316 17.05)" fill="#61c2e6" style="isolation: isolate"/>
    <ellipse id="Ellipse_11" data-name="Ellipse 11" cx="15.251" cy="15.251" rx="15.251" ry="15.251" transform="translate(18.316 17.05)" fill="#73aecf"/>
    <path id="Path_65" data-name="Path 65" d="M334.747,373.279a6.714,6.714,0,0,1-13.427,0c0-6.713,6.713-13.427,6.713-13.427S334.747,366.565,334.747,373.279Z" transform="translate(-267.265 -349.782)" fill="#559bbe"/>
    <path id="Path_66" data-name="Path 66" d="M304.2,345.562a5.595,5.595,0,0,1-11.189,0c0-5.595,5.595-11.189,5.595-11.189S304.2,339.968,304.2,345.562Z" transform="translate(-250.144 -334.373)" fill="#559bbe"/>
    <path id="Path_67" data-name="Path 67" d="M257.379,393.423c-1.374,2.907-1.135,5.221.7,7.043,1.815,1.8,4.159,2.039,6.922.7.76,2.566-.964,6.264-3.429,8A8.758,8.758,0,0,1,248.5,398.4,8.6,8.6,0,0,1,257.379,393.423Z" transform="translate(-222.746 -370.024)" fill="#474645"/>
  </g>
</svg>
