<svg xmlns="http://www.w3.org/2000/svg" width="245.786" height="115.126" viewBox="0 0 245.786 115.126">
  <g id="Group_1111" data-name="Group 1111" transform="translate(-294.96 -272.581)">
    <g id="Group_1109" data-name="Group 1109" transform="translate(376.434 272.581)">
      <path id="Path_2753" data-name="Path 2753" d="M633.1,272.581a78.967,78.967,0,0,0-37.824,9.587,79.328,79.328,0,0,1,41.418,65.967V272.666C635.5,272.612,634.305,272.581,633.1,272.581Z" transform="translate(-553.857 -272.581)" fill="#80c86b"/>
      <path id="Path_2754" data-name="Path 2754" d="M535.479,282.168a78.969,78.969,0,0,0-37.824-9.587c-1.205,0-2.4.031-3.595.085v75.469A79.33,79.33,0,0,1,535.479,282.168Z" transform="translate(-494.06 -272.581)" fill="#339d4b"/>
      <path id="Path_2755" data-name="Path 2755" d="M535.479,296.008a79.33,79.33,0,0,0-41.419,65.967v1.782H576.9v-1.782A79.328,79.328,0,0,0,535.479,296.008Z" transform="translate(-494.06 -286.421)" fill="#155427"/>
    </g>
    <g id="Group_1110" data-name="Group 1110" transform="translate(294.96 370.783)">
      <path id="Path_2756" data-name="Path 2756" d="M294.96,513.669h2.189l5.445,12.76,5.445-12.76h2.082l-6.887,16.016h-1.388Z" transform="translate(-294.96 -513.215)"/>
      <path id="Path_2757" data-name="Path 2757" d="M343.469,513.669h1.388l6.887,16.016h-2.189l-1.922-4.485h-7.047l-1.922,4.485h-2.082Zm3.443,9.8-2.8-6.593-2.8,6.593Z" transform="translate(-319.55 -513.215)"/>
      <path id="Path_2758" data-name="Path 2758" d="M385.248,513.669h2.136V527.9h7.554v1.788h-9.69Z" transform="translate(-348.301 -513.215)"/>
      <path id="Path_2759" data-name="Path 2759" d="M422.694,513.669h2.135V527.9h7.554v1.788h-9.69Z" transform="translate(-370.424 -513.215)"/>
      <path id="Path_2760" data-name="Path 2760" d="M460.139,513.669h2.136v16.016h-2.136Z" transform="translate(-392.546 -513.215)"/>
      <path id="Path_2761" data-name="Path 2761" d="M505.58,513.669h1.388l6.887,16.016h-2.189l-1.922-4.485H502.7l-1.922,4.485h-2.082Zm3.444,9.8-2.8-6.593-2.8,6.593Z" transform="translate(-415.323 -513.215)"/>
      <path id="Path_2762" data-name="Path 2762" d="M546.708,522.291v-8.622H548.9v8.649c0,4.138,1.868,5.953,4.8,5.953s4.8-1.815,4.8-5.953v-8.649h2.082v8.622c0,5.419-2.8,7.848-6.94,7.848S546.708,527.709,546.708,522.291Z" transform="translate(-443.69 -513.215)"/>
      <path id="Path_2763" data-name="Path 2763" d="M597.984,513.669h4.965c6.22,0,8.916,3.6,8.916,8.008s-2.7,8.008-8.916,8.008h-4.965Zm4.992,14.147c5.205,0,6.673-2.936,6.673-6.139s-1.468-6.139-6.673-6.139h-2.856v12.279Z" transform="translate(-473.983 -513.215)"/>
      <path id="Path_2764" data-name="Path 2764" d="M647.368,513.669H649.5v16.016h-2.136Z" transform="translate(-503.158 -513.215)"/>
      <path id="Path_2765" data-name="Path 2765" d="M668.049,521.022a8.5,8.5,0,1,1,8.515,8.462A8.218,8.218,0,0,1,668.049,521.022Zm14.788,0c0-3.9-2.616-6.673-6.273-6.673-3.684,0-6.3,2.776-6.3,6.673,0,3.87,2.616,6.673,6.3,6.673C680.221,527.7,682.837,524.892,682.837,521.022Z" transform="translate(-515.377 -512.56)"/>
      <path id="Path_2766" data-name="Path 2766" d="M725.065,513.669H727.2V527.9h7.554v1.788h-9.69Z" transform="translate(-549.061 -513.215)"/>
      <path id="Path_2767" data-name="Path 2767" d="M758.662,521.022a8.5,8.5,0,1,1,8.515,8.462A8.218,8.218,0,0,1,758.662,521.022Zm14.788,0c0-3.9-2.616-6.673-6.273-6.673-3.684,0-6.3,2.776-6.3,6.673,0,3.87,2.616,6.673,6.3,6.673C770.834,527.7,773.45,524.892,773.45,521.022Z" transform="translate(-568.91 -512.56)"/>
      <path id="Path_2768" data-name="Path 2768" d="M813.787,521.176c0-5.179,3.9-8.355,8.515-8.355a9.769,9.769,0,0,1,5.553,1.682v2.216a7.993,7.993,0,0,0-5.553-2.109c-3.684,0-6.3,2.563-6.3,6.567,0,3.978,2.616,6.673,6.3,6.673a8.32,8.32,0,0,0,4.084-.934v-3.63H823.1V521.5h5.419v6.46a14.735,14.735,0,0,1-6.22,1.682A8.23,8.23,0,0,1,813.787,521.176Z" transform="translate(-601.477 -512.714)"/>
      <path id="Path_2769" data-name="Path 2769" d="M865.988,523.279l-6.273-9.61h2.322l5.072,7.874,5.071-7.874H874.4l-6.273,9.61v6.407h-2.135Z" transform="translate(-628.61 -513.215)"/>
    </g>
  </g>
</svg>
