<svg id="Group_2" data-name="Group 2" xmlns="http://www.w3.org/2000/svg" width="71.698" height="66.936" viewBox="0 0 71.698 66.936">
  <path id="Path_6" data-name="Path 6" d="M628.014,272.581a68.348,68.348,0,0,0-32.738,8.3,68.661,68.661,0,0,1,35.849,57.1V272.654C630.093,272.608,629.057,272.581,628.014,272.581Z" transform="translate(-559.427 -272.581)" fill="#88bb70"/>
  <path id="Path_7" data-name="Path 7" d="M529.909,280.878a68.35,68.35,0,0,0-32.738-8.3c-1.043,0-2.079.027-3.111.073v65.321A68.662,68.662,0,0,1,529.909,280.878Z" transform="translate(-494.06 -272.581)" fill="#2a9448"/>
  <path id="Path_8" data-name="Path 8" d="M529.909,296.008a68.662,68.662,0,0,0-35.849,57.1v1.542h71.7V353.1A68.661,68.661,0,0,0,529.909,296.008Z" transform="translate(-494.06 -287.711)" fill="#175d2e"/>
</svg>
