<svg xmlns="http://www.w3.org/2000/svg" width="41.205" height="32.964" viewBox="0 0 41.205 32.964">
  <g data-name=" " transform="translate(-883.377 -253.268)" style="isolation: isolate">
    <g data-name="Group 986" style="isolation: isolate">
      <path data-name="Path 2714" d="M883.377,271.718a17.459,17.459,0,0,1,1.475-7.38,18.438,18.438,0,0,1,3.875-5.535,18.7,18.7,0,0,1,5.412-3.691,24.19,24.19,0,0,1,6.088-1.844v5.78a13.91,13.91,0,0,0-2.952,1.415,11.014,11.014,0,0,0-2.645,2.337,13.144,13.144,0,0,0-1.967,3.321,10.538,10.538,0,0,0-.8,4.121h8.118v15.99h-16.6Zm24.353,0a17.428,17.428,0,0,1,1.477-7.38,18.4,18.4,0,0,1,3.874-5.535,18.669,18.669,0,0,1,5.412-3.691,24.21,24.21,0,0,1,6.089-1.844v5.78a13.841,13.841,0,0,0-2.952,1.415,10.959,10.959,0,0,0-2.645,2.337,13.148,13.148,0,0,0-1.968,3.321,10.52,10.52,0,0,0-.8,4.121h8.119v15.99H907.73Z" fill="#e9a630"/>
    </g>
  </g>
</svg>
